<svg xmlns="http://www.w3.org/2000/svg" viewBox="0 0 64 64" fill="none">
  <!-- tweakables -->
  <!-- stroke: #7a5a45  |  thickness: 6  |  ring radius: 6  |  start/end radius: 7 -->
  <g stroke="#7a5a45" stroke-width="2" stroke-linecap="round" stroke-linejoin="round" fill="none">

    <!-- TOP ROW: start dot -> ring -> ring -> curve down -->
    <circle cx="10" cy="14" r="7" fill="#7a5a45" stroke="none"/>
    <path d="M17 14H24"/>
    <circle cx="30" cy="14" r="6"/>
    <path d="M36 14H42"/>
    <circle cx="48" cy="14" r="6"/>
    <path d="M54 14
             Q60 14 60 20
             V26
             Q60 32 54 32
             H44"/>

    <!-- MIDDLE ROW: ring -> ring -> curve down/left -->
    <circle cx="38" cy="32" r="6"/>
    <path d="M32 32H26"/>
    <circle cx="20" cy="32" r="6"/>
    <path d="M14 32
             Q6 32 6 40
             V44
             Q6 52 14 52
             H26"/>

    <!-- BOTTOM ROW: ring -> ring -> end dot -->
    <circle cx="32" cy="52" r="6"/>
    <path d="M38 52H44"/>
    <circle cx="50" cy="52" r="6"/>
    <path d="M56 52H56"/> <!-- tiny spacer so end dot doesn't touch ring -->
    <circle cx="60" cy="52" r="7" fill="#7a5a45" stroke="none"/>

  </g>
</svg>
