<svg xmlns="http://www.w3.org/2000/svg" viewBox="0 0 1200 600">
  <defs>
    <linearGradient id="g" x1="0" y1="0" x2="0" y2="1">
      <stop offset="0" stop-color="#5b4633" stop-opacity="0.55"/>
      <stop offset="1" stop-color="#5b4633" stop-opacity="0.35"/>
    </linearGradient>
  </defs>
  <rect width="1200" height="600" fill="none"/>
  <!-- ultra-light, stylized world blobs (not geographic-accurate) -->
  <g fill="url(#g)">
    <path d="M166,190c42,-48 112,-70 170,-62c40,6 62,28 74,46c18,26 15,54 -8,78c-26,27 -62,32 -98,36c-44,5 -78,22 -118,6c-36,-14 -62,-57 -20,-104z"/>
    <path d="M475,150c34,-30 82,-46 132,-40c52,6 88,30 108,58c20,30 12,70 -12,96c-26,28 -64,42 -108,42c-58,0 -98,-12 -128,-42c-28,-28 -24,-78 8,-114z"/>
    <path d="M818,170c42,-34 120,-52 194,-40c70,12 122,46 138,86c14,34 -4,72 -30,96c-34,32 -92,52 -156,46c-70,-6 -116,-22 -148,-58c-30,-34 -28,-92 2,-130z"/>
    <path d="M640,360c24,-18 64,-26 104,-18c44,10 74,34 84,60c8,22 -4,46 -18,60c-20,20 -54,32 -92,28c-44,-6 -70,-16 -90,-36c-18,-18 -16,-56 12,-94z"/>
    <path d="M260,360c28,-20 70,-26 106,-18c36,8 60,28 68,48c8,18 0,40 -12,54c-16,18 -44,30 -76,28c-38,-2 -62,-10 -80,-26c-18,-16 -20,-46 -6,-86z"/>
  </g>
  <g fill="none" stroke="#3e2b1f" stroke-opacity="0.25" stroke-width="2">
    <circle cx="600" cy="300" r="250"/>
    <path d="M350,300h500"/>
    <path d="M600,50v500"/>
    <path d="M420,140c80,60 280,60 360,0"/>
    <path d="M420,460c80,-60 280,-60 360,0"/>
  </g>
</svg>
